# xmcd
#
# Track frame offsets: 
#        150
#        15326
#        29466
#        49287
#        58966
#        72945
#        88309
#        104154
#        115911
#        125588
#        137774
#        148931
#        159614
#
# Disc length: 2287 seconds
#
# Revision: 0
# Processed by: cddbd v1.5.2PL0 Copyright (c) Steve Scherf et al.
# Submitted via: ExactAudioCopy v1.0b1
#
DISCID=ca08ed0d
DTITLE=Billy Mata and The Texas Tradition - Keepin' The Tradition
DYEAR=1998
DGENRE=Country
TTITLE0=From Tennesee To Texas
TTITLE1=Undo The Right
TTITLE2=Faded Love
TTITLE3=I'm Going Back To San Antonio
TTITLE4=Case of Sorrow
TTITLE5=All I Need Is Time
TTITLE6=Take The 'A' Train
TTITLE7=Heart To Heart Talk
TTITLE8=Tally Ho
TTITLE9=Living And Learning
TTITLE10=Don't You Believe Her
TTITLE11=Ring Ring Telephone Ring
TTITLE12=Hearts
EXTD=
EXTT0=
EXTT1=
EXTT2=
EXTT3=
EXTT4=
EXTT5=
EXTT6=
EXTT7=
EXTT8=
EXTT9=
EXTT10=
EXTT11=
EXTT12=
PLAYORDER=
